HIERARCHY
ROOT root
{
	OFFSET 0.000000 0.000000 0.000000
	CHANNELS 6 Xposition Yposition Zposition Zrotation Yrotation Xrotation
	JOINT lhip
	{
		OFFSET 0.058581 -0.082280 -0.017664
		CHANNELS 3 Zrotation Yrotation Xrotation
		JOINT lknee
		{
			OFFSET 0.043451 -0.386469 0.008037
			CHANNELS 3 Zrotation Yrotation Xrotation
			JOINT lankle
			{
				OFFSET -0.014790 -0.426874 -0.037428
				CHANNELS 3 Zrotation Yrotation Xrotation
				JOINT ltoe
				{
					OFFSET 0.041054 -0.060286 0.122042
					CHANNELS 3 Zrotation Yrotation Xrotation
					End Site
					{
						OFFSET 0.000000 0.000000 0.000000
					}
				}
			}
		}
	}
	JOINT rhip
	{
		OFFSET -0.060310 -0.090513 -0.013543
		CHANNELS 3 Zrotation Yrotation Xrotation
		JOINT rknee
		{
			OFFSET -0.043257 -0.383688 -0.004843
			CHANNELS 3 Zrotation Yrotation Xrotation
			JOINT rankle
			{
				OFFSET 0.019056 -0.420046 -0.034562
				CHANNELS 3 Zrotation Yrotation Xrotation
				JOINT rtoe
				{
					OFFSET -0.034840 -0.062106 0.130323
					CHANNELS 3 Zrotation Yrotation Xrotation
					End Site
					{
						OFFSET 0.000000 0.000000 0.000000
					}
				}
			}
		}
	}
	JOINT lowerback
	{
		OFFSET 0.004439 0.124404 -0.038385
		CHANNELS 3 Zrotation Yrotation Xrotation
		JOINT upperback
		{
			OFFSET 0.004488 0.137956 0.026820
			CHANNELS 3 Zrotation Yrotation Xrotation
			JOINT chest
			{
				OFFSET -0.002265 0.056032 0.002855
				CHANNELS 3 Zrotation Yrotation Xrotation
				JOINT lowerneck
				{
					OFFSET -0.013390 0.211636 -0.033468
					CHANNELS 3 Zrotation Yrotation Xrotation
					JOINT upperneck
					{
						OFFSET 0.010113 0.088937 0.050410
						CHANNELS 3 Zrotation Yrotation Xrotation
						End Site
						{
							OFFSET 0.000000 0.000000 0.000000
						}
					}
				}
				JOINT lclavicle
				{
					OFFSET 0.071702 0.114000 -0.018898
					CHANNELS 3 Zrotation Yrotation Xrotation
					JOINT lshoulder
					{
						OFFSET 0.122921 0.045205 -0.019046
						CHANNELS 3 Zrotation Yrotation Xrotation
						JOINT lelbow
						{
							OFFSET 0.255332 -0.015649 -0.022946
							CHANNELS 3 Zrotation Yrotation Xrotation
							JOINT lwrist
							{
								OFFSET 0.265709 0.012698 -0.007375
								CHANNELS 3 Zrotation Yrotation Xrotation
								End Site
								{
									OFFSET 0.000000 0.000000 0.000000
								}
							}
						}
					}
				}
				JOINT rclavicle
				{
					OFFSET -0.082954 0.112472 -0.023707
					CHANNELS 3 Zrotation Yrotation Xrotation
					JOINT rshoulder
					{
						OFFSET -0.113228 0.046853 -0.008472
						CHANNELS 3 Zrotation Yrotation Xrotation
						JOINT relbow
						{
							OFFSET -0.260127 -0.014369 -0.031269
							CHANNELS 3 Zrotation Yrotation Xrotation
							JOINT rwrist
							{
								OFFSET -0.269108 0.006794 -0.006027
								CHANNELS 3 Zrotation Yrotation Xrotation
								End Site
								{
									OFFSET 0.000000 0.000000 0.000000
								}
							}
						}
					}
				}
			}
		}
	}
}
MOTION
Frames: 11
Frame Time: 0.033333
-1.820149 0.267061 1.002293 92.533617 2.046813 92.700685 2.204442 1.264369 0.721036 -3.805900 -6.299112 2.131709 3.459992 10.499615 -12.299029 0.000000 -0.000000 0.000000 -5.111844 -4.441591 -6.036077 -0.118600 -2.010003 11.876587 4.253406 -4.518263 -7.889774 0.000000 -0.000000 0.000000 -0.756608 2.917304 5.351271 0.653350 -0.869214 8.015493 -0.369185 0.932049 -7.110263 0.174778 17.896641 -0.569471 0.768754 19.268858 5.205093 -30.949118 2.214915 -2.790534 -52.643505 -3.114888 11.444972 10.024273 -28.397692 -5.249899 -2.993343 -11.825091 -1.264720 31.279359 3.243529 0.779116 55.489647 5.358062 12.864905 -13.469828 22.662430 -11.785898 6.379151 8.285884 2.266602 
-1.820041 0.267151 1.002143 92.389888 2.066180 92.675005 2.176102 1.356197 0.813180 -3.743989 -6.267011 2.048930 3.532728 10.519291 -12.348467 0.000000 -0.000000 0.000000 -5.106773 -4.463429 -6.085804 -0.116375 -1.907217 11.971672 4.317677 -4.512997 -7.951943 0.000000 -0.000000 0.000000 -0.719784 2.875297 5.554716 0.635481 -0.866344 7.691180 -0.391451 0.884280 -6.951127 0.179125 17.505616 -0.963682 0.675991 18.930232 5.373607 -30.976521 2.290369 -2.834842 -52.644307 -3.078222 11.597807 10.082090 -28.575217 -5.086046 -2.784324 -11.927976 -1.480076 31.300870 3.160068 0.628077 55.530765 5.257722 12.976405 -13.486025 22.783342 -11.667660 6.283002 8.304946 1.973085 
-1.820059 0.267123 1.002165 92.288019 2.053313 92.731598 2.221333 1.336864 0.867635 -3.817823 -6.295063 1.855929 3.527229 10.529031 -12.284368 0.000000 -0.000000 0.000000 -5.112372 -4.383470 -6.200727 -0.120595 -1.795051 12.042237 4.310245 -4.596764 -7.866658 0.000000 -0.000000 0.000000 -0.764817 2.875955 5.686262 0.634653 -0.818193 7.411209 -0.461765 0.835241 -6.813257 0.201472 16.531551 -1.522196 0.709277 17.819533 5.739533 -30.965882 2.416000 -2.913017 -52.617152 -3.221655 11.818249 9.982148 -28.618652 -4.966506 -2.765225 -12.082295 -1.540792 31.450508 3.034855 0.384079 55.452943 5.039711 13.185079 -13.413400 22.898872 -11.509220 6.159966 8.312604 1.848506 
-1.820832 0.267170 1.002244 92.114877 2.095739 93.007469 2.234401 1.276709 0.635911 -3.791071 -6.195030 1.665783 3.499090 10.668889 -12.194670 0.000000 -0.000000 0.000000 -5.052972 -4.190444 -6.684896 -0.054789 -1.614227 12.189308 4.243465 -4.982123 -7.837287 0.000000 -0.000000 0.000000 -0.841930 2.822281 5.946179 0.668676 -0.625649 6.943511 -0.710411 0.824567 -6.698096 0.136862 12.408693 -3.133134 1.139842 12.985177 7.071376 -31.074875 2.564710 -2.840711 -52.434291 -3.544793 12.283572 10.144370 -28.719336 -5.137253 -2.676822 -12.391449 -1.503110 31.766441 3.004496 0.006094 55.292898 4.346591 13.446810 -13.462420 23.208317 -11.367258 5.733404 8.211208 1.402783 
-1.821110 0.267219 1.002256 92.106650 2.121941 93.063536 2.273833 1.264671 0.561093 -3.810179 -6.182469 1.663860 3.467691 10.646110 -12.201136 0.000000 -0.000000 0.000000 -5.025669 -4.224807 -6.786623 -0.021174 -1.557424 12.210613 4.196633 -5.111444 -7.852142 0.000000 -0.000000 0.000000 -0.834597 2.827177 6.106418 0.693314 -0.556780 6.812126 -0.813757 0.795765 -6.646711 0.171852 10.115863 -3.902894 1.086873 10.550919 7.585683 -31.238515 2.594360 -2.704473 -52.162764 -3.729808 12.432597 10.073373 -28.912335 -5.115863 -2.389672 -12.447357 -1.641016 31.842258 3.014096 -0.150921 55.236839 4.059301 13.515691 -13.466212 23.334684 -11.174713 5.460065 8.192065 1.270940 
-1.821665 0.267388 1.002225 92.112167 2.160300 93.157906 2.333801 1.289559 0.321623 -3.860408 -6.128100 1.876988 3.431954 10.560971 -12.303522 0.000000 -0.000000 0.000000 -5.016115 -4.276398 -7.023449 0.075365 -1.499260 12.388114 4.048285 -5.286726 -7.954282 0.000000 -0.000000 0.000000 -0.875469 2.782465 6.487605 0.764446 -0.513572 6.656686 -1.033769 0.798285 -6.747600 0.233635 5.465897 -4.568628 1.172996 5.724418 8.115675 -31.477899 2.729634 -2.408178 -51.789117 -4.056258 12.664150 10.104837 -29.192824 -5.231752 -1.907211 -12.561501 -1.736313 31.906399 3.088480 -0.456975 55.203875 3.605420 13.480935 -13.297704 23.253350 -10.861920 4.913927 8.092881 1.115942 
-1.821980 0.267498 1.001965 92.085746 2.197487 93.202895 2.414307 1.306988 0.200749 -3.939610 -6.076674 1.961705 3.475142 10.501096 -12.428586 0.000000 -0.000000 0.000000 -4.980935 -4.290641 -7.291827 0.111621 -1.399431 12.740943 3.873086 -5.391472 -8.053402 0.000000 -0.000000 0.000000 -0.989773 2.757600 6.861205 0.942952 -0.455777 6.623394 -1.151737 0.635481 -6.897730 0.302025 0.609541 -5.061117 1.345145 0.850310 8.403806 -31.861951 2.844213 -2.051101 -51.441399 -4.327230 12.698792 10.256926 -29.359254 -5.543406 -1.619365 -12.687837 -1.795421 31.956560 3.013309 -0.768468 55.098287 3.455300 13.284073 -13.174280 23.116606 -10.474659 4.577012 7.952181 1.057202 
-1.822196 0.267887 1.001965 91.956470 2.232262 93.320902 2.431629 1.374641 0.018770 -3.987481 -5.980878 2.099428 3.394859 10.500711 -12.635463 0.000000 -0.000000 0.000000 -4.937968 -4.277276 -7.699548 0.114343 -1.275142 13.184748 3.828692 -5.561585 -8.245477 0.000000 -0.000000 0.000000 -1.006920 2.672947 7.086991 1.070533 -0.514449 6.703925 -1.344071 0.560367 -6.845161 0.416273 -3.342984 -5.614122 1.696816 -3.864161 8.302253 -32.019734 2.946889 -1.912215 -51.206258 -4.415040 12.973367 10.319720 -29.446276 -5.852723 -1.379209 -12.485560 -1.548776 32.152749 3.314489 -1.172717 54.903120 3.141328 13.245547 -13.273445 23.022015 -10.602043 4.173657 7.961570 0.932226 
-1.822234 0.268315 1.001896 91.703462 2.218689 93.382659 2.390817 1.588302 -0.127061 -4.052105 -5.923179 2.339439 3.370241 10.477539 -12.809410 0.000000 -0.000000 0.000000 -4.952672 -4.234278 -8.120245 0.106809 -1.063536 13.741759 3.838136 -5.610358 -8.408374 0.000000 -0.000000 0.000000 -1.102581 2.583441 7.401207 1.306701 -0.612708 6.911225 -1.464270 0.495967 -6.854060 0.535421 -6.466149 -5.874381 2.033851 -7.652428 7.498776 -32.002305 3.045944 -1.938406 -51.162125 -4.338008 13.275759 10.157983 -29.449007 -6.136311 -1.193042 -12.166316 -1.246573 32.296530 3.499562 -1.769358 54.632662 2.911622 13.166431 -13.163434 23.103452 -10.611297 3.999492 7.794908 1.455498 
-1.821984 0.268515 1.001714 91.428014 2.250313 93.315165 2.427931 1.671630 -0.176706 -4.145610 -5.876573 2.680021 3.424425 10.490554 -13.075392 0.000000 -0.000000 0.000000 -4.936964 -4.116738 -8.437468 0.086699 -1.017721 14.400959 3.670069 -5.539512 -8.652466 0.000000 -0.000000 0.000000 -1.084502 2.507548 8.102657 1.607517 -0.733124 6.626521 -1.292834 0.373449 -6.916029 1.302057 -10.655450 -5.173473 2.230674 -11.293363 6.265506 -32.183800 2.984318 -1.307703 -51.175621 -4.065583 13.267605 10.217538 -29.508840 -6.114087 -1.344689 -12.051029 -1.276326 31.836213 3.760520 -1.795263 54.820704 2.629464 12.967907 -13.377398 23.540011 -10.404957 3.639476 7.719301 0.934182 
-1.821782 0.268951 1.001506 90.970591 2.226272 93.454555 2.302179 1.734725 -0.523180 -4.106416 -5.606294 3.188230 3.434172 10.601212 -13.201024 0.000000 -0.000000 0.000000 -4.974843 -3.875898 -9.014645 0.095041 -0.801265 15.061954 3.621962 -5.558233 -8.555237 0.000000 -0.000000 0.000000 -0.960627 2.374912 8.364921 1.797160 -0.882504 7.067762 -1.372913 0.306994 -6.923660 1.055371 -11.546747 -5.611585 2.488709 -12.786626 5.084747 -32.132182 3.003338 -1.500750 -51.158720 -3.814861 13.534932 10.029998 -29.353183 -6.239551 -1.789848 -11.939434 -0.918015 31.954491 4.026821 -2.249864 54.511296 2.612087 12.908147 -13.485933 23.956302 -10.985244 3.629278 7.754195 1.070563 
